<?xml version="1.0" standalone="no"?>
<!DOCTYPE svg PUBLIC "-//W3C//DTD SVG 1.1//EN" "http://www.w3.org/Graphics/SVG/1.1/DTD/svg11.dtd" >
<svg xmlns="http://www.w3.org/2000/svg" xmlns:xlink="http://www.w3.org/1999/xlink" version="1.1">
<metadata>
Created by FontForge 20200427 at Sat May 14 00:42:27 1994
 By www
Brendel Informatik Cologne FRG
</metadata>
<defs>
<font id="Digital-Bold" horiz-adv-x="572" >
  <font-face 
    font-family="Digital"
    font-weight="700"
    font-stretch="normal"
    units-per-em="1000"
    panose-1="0 0 0 0 0 0 0 0 0 0"
    ascent="800"
    descent="-200"
    x-height="540"
    cap-height="720"
    bbox="-51 -176 1044 922"
    underline-thickness="52"
    underline-position="-114"
    unicode-range="U+0020-F002"
  />
<missing-glyph horiz-adv-x="824" 
d="M51 0v824h722v-824h-722zM722 51v722h-620v-722h620z" />
    <glyph glyph-name=".notdef" horiz-adv-x="824" 
d="M51 0v824h722v-824h-722zM722 51v722h-620v-722h620z" />
    <glyph glyph-name=".null" unicode="&#xd7;" horiz-adv-x="0" 
 />
    <glyph glyph-name=".null" unicode="&#x141;" horiz-adv-x="0" 
 />
    <glyph glyph-name=".null" unicode="&#xfd;" horiz-adv-x="0" 
 />
    <glyph glyph-name="nonmarkingreturn" horiz-adv-x="290" 
 />
    <glyph glyph-name="space" unicode=" " horiz-adv-x="290" 
 />
    <glyph glyph-name="exclam" unicode="!" horiz-adv-x="249" 
d="M59 154l-1 566h130l1 -566h-130zM125 0q-31 0 -53 21t-22 52q0 30 22 51t52 21t52.5 -21.5t22.5 -50.5q0 -31 -22 -52t-52 -21z" />
    <glyph glyph-name="quotedbl" unicode="&#x22;" horiz-adv-x="311" 
d="M255 490h-101l23 230h101zM134 490h-101l23 230h102z" />
    <glyph glyph-name="numbersign" unicode="#" horiz-adv-x="585" 
d="M538 431h-115l-32 -142h115l-15 -72h-115l-45 -203h-74l44 203h-79l-45 -203h-74l44 203h-116l17 72h115l31 142h-115l15 72h116l44 203h75l-45 -203h80l44 203h74l-44 -203h115zM269 431l-32 -142h80l31 142h-79z" />
    <glyph glyph-name="dollar" unicode="$" horiz-adv-x="551" 
d="M313 595v-178h19q77 0 126 -31q59 -37 59 -110l-1 -113q0 -77 -49.5 -121.5t-127.5 -44.5h-26l-1 -97h-68l1 97h-215l-1 125h216v179h-28q-76 0 -128 39q-58 43 -58 117l1 88q0 79 43 127t119 48l51 1l-1 40h68l1 -40h208l1 -126h-209zM245 595h-37q-46 0 -46 -45l-1 -72
q0 -28 13 -44t41 -16h30v177zM387 258q0 21 -18.5 32t-41.5 11h-14v-179l18 -1q43 0 54 39q2 6 1 9z" />
    <glyph glyph-name="percent" unicode="%" horiz-adv-x="735" 
d="M234 402h-90q-53 0 -86 26q-36 29 -36 81l1 104q0 51 34 79t86 28h90q53 0 87.5 -27.5t34.5 -79.5l-1 -104q0 -51 -34 -79t-86 -28zM230 600q0 6 -7.5 8t-13.5 2h-47q-9 0 -13 -1q-8 -2 -9 -9l1 -78q0 -6 7.5 -8t13.5 -2h46q9 0 13 1q9 3 10 9zM225 0h-132l417 720h134z
M591 -2h-91q-53 0 -85 26q-35 29 -35 81l1 104q0 53 32.5 80t86.5 27h94q52 0 84.5 -27.5t32.5 -79.5l1 -105q0 -52 -33.5 -79t-87.5 -27zM587 196q0 6 -7 8q-6 2 -13 2h-46q-9 0 -13 -1q-9 -3 -10 -9l1 -77q0 -6 8 -9q5 -2 13 -2h45q5 0 13.5 2t9.5 9z" />
    <glyph glyph-name="ampersand" unicode="&#x26;" horiz-adv-x="726" 
d="M489 236v11l-1 130h130l-1 -152q0 -30 -3 -50.5t-14 -45.5l128 -129h-181l-30 33q-27 -17 -58.5 -25t-65.5 -8h-184q-23 0 -47.5 8t-46.5 20q-39 23 -61 56q-25 37 -25 79l1 78q0 28 18 59t41 46q5 4 40 23q16 9 25 15q-23 26 -46 53q-30 39 -30 105l-1 38q0 20 10 41.5
t26 41.5q27 33 62 45t83 12h83q49 0 84 -16t60 -54q11 -16 18.5 -34.5t7.5 -36.5l-1 -68q0 -32 -22 -63.5t-52 -48.5l-73 -42zM379 558q0 8 -9 22q-5 8 -13 11.5t-20 3.5l-55 4q-32 0 -48 -6q-28 -11 -28 -37l-1 -19q0 -19 24 -47q19 -21 39 -41q32 17 65 34q47 29 47 51z
M247 296l-53 -30q-16 -9 -27.5 -21.5t-11.5 -27.5l-1 -42q0 -6 3 -13q2 -5 8 -13.5t18 -13t25 -4.5h178q15 0 26 4z" />
    <glyph glyph-name="quotesingle" unicode="'" horiz-adv-x="191" 
d="M134 490h-101l23 230h102z" />
    <glyph glyph-name="parenleft" unicode="(" horiz-adv-x="267" 
d="M109 -106q-59 76 -59 171l1 559q0 97 58 171h152q-39 -39 -60 -84t-21 -97l-1 -538q0 -53 22 -99q19 -41 60 -83h-152z" />
    <glyph glyph-name="parenright" unicode=")" horiz-adv-x="267" 
d="M157 -106h-150q41 42 60 83.5t19 97.5l1 538q0 54 -20 97t-61 85l151 1q60 -74 60 -172l-1 -559q0 -46 -15 -91t-44 -80z" />
    <glyph glyph-name="asterisk" unicode="*" horiz-adv-x="396" 
d="M320 426l-95 87l34 -116h-121l34 117l-96 -88l-55 100l125 31l-126 34l56 98l97 -90l-35 121h122l-31 -119l91 86l56 -98l-124 -32l124 -34z" />
    <glyph glyph-name="plus" unicode="+" horiz-adv-x="648" 
d="M381 307l-1 -218h-113l1 218h-222l-1 108h223l-1 219h113l1 -219h221l1 -108h-222z" />
    <glyph glyph-name="comma" unicode="," horiz-adv-x="182" 
d="M102 -100h-88l47 95q-46 17 -46 64q0 29 22.5 48.5t52.5 19.5q31 0 54 -18.5t23 -48.5q0 -11 -3.5 -24t-9.5 -25z" />
    <glyph glyph-name="hyphen" unicode="-" horiz-adv-x="327" 
d="M22 229v105h282l1 -104z" />
    <glyph glyph-name="period" unicode="." horiz-adv-x="177" 
d="M89 0q-30 0 -52 17t-22 46q0 27 22.5 44.5t50.5 17.5t51 -17.5t23 -45.5t-22 -45t-51 -17z" />
    <glyph glyph-name="slash" unicode="/" horiz-adv-x="579" 
d="M145 0h-131l417 720h134z" />
    <glyph glyph-name="zero" unicode="0" horiz-adv-x="649" 
d="M364 0h-80q-112 0 -168 46q-62 51 -62 161l-1 305q0 49 11 84.5t41 67.5q36 36 83 48q32 8 97 8h79q67 0 96 -7q47 -11 83 -49q30 -31 41 -66t11 -85l1 -306q0 -49 -11 -84t-42 -67q-36 -36 -82 -48q-32 -8 -97 -8zM466 518q0 48 -17.5 62.5t-67.5 14.5l-111 1l-12 -2
q-46 0 -60.5 -14.5t-14.5 -61.5l-1 -316q0 -46 15 -61t60 -15l12 -1h113q49 0 66 14.5t17 62.5z" />
    <glyph glyph-name="one" unicode="1" horiz-adv-x="648" 
d="M259 0v720h129l1 -720h-130z" />
    <glyph glyph-name="two" unicode="2" horiz-adv-x="648" 
d="M80 0v228q0 43 15 79.5t47 62.5q24 19 51.5 29.5t56.5 10.5h151q14 0 25 12t11 27l1 98q0 22 -9.5 35t-31.5 13h-316l-1 125h310q39 0 69 -9.5t57 -34.5q50 -45 50 -111l1 -117q0 -68 -49 -116t-118 -48h-139q-27 0 -38.5 -10.5t-11.5 -37.5l1 -111l355 1l1 -126h-488z
" />
    <glyph glyph-name="three" unicode="3" horiz-adv-x="649" 
d="M372 0h-302l-1 125h314q18 0 31 12t13 31l1 75q0 27 -8 37.5t-35 16.5l-9 2h-153l-1 124h154l9 1q24 6 30.5 11t12.5 28l-1 6l1 85q0 19 -13 31t-33 12h-312l-1 123h303q45 0 76.5 -9t60.5 -36q48 -45 48 -109l1 -99q0 -72 -53 -106q25 -16 38.5 -44t13.5 -60l1 -101
q0 -72 -58 -116q-53 -40 -128 -40z" />
    <glyph glyph-name="four" unicode="4" horiz-adv-x="648" 
d="M417 681l-223 -355l223 -2v357zM415 -1l1 202h-252q-50 0 -83 22q-39 26 -39 74q0 30 15 54l234 368h124h25h105l1 -720h-131z" />
    <glyph glyph-name="five" unicode="5" horiz-adv-x="648" 
d="M384 0h-306l-1 125h301q23 0 39 9q21 12 21 34l-1 128q0 51 -55 51h-303l-1 373h488l1 -125h-359v-122h178q79 0 130 -46t51 -125l-1 -130q0 -38 -9.5 -63.5t-34.5 -52.5q-29 -31 -61 -43.5t-77 -12.5z" />
    <glyph glyph-name="six" unicode="6" horiz-adv-x="647" 
d="M180 547v-75h232q77 0 128 -42q55 -46 55 -122l1 -140q0 -67 -49.5 -117.5t-116.5 -50.5h-202q-74 0 -126 48t-52 121l1 378q0 81 46 127t127 46h372l1 -125h-362q-26 0 -37.5 -9.5t-18.5 -35.5zM466 299q0 27 -14 37.5t-42 10.5l-174 -1q-24 0 -40.5 -10t-16.5 -33
l-1 -124q0 -21 21.5 -37.5t42.5 -16.5h178q20 0 32.5 12.5t12.5 32.5z" />
    <glyph glyph-name="seven" unicode="7" horiz-adv-x="648" 
d="M305 0h-142l263 595h-359l-1 125h414q40 0 67.5 -24.5t27.5 -64.5q0 -17 -6 -31z" />
    <glyph glyph-name="eight" unicode="8" horiz-adv-x="648" 
d="M404 0h-160q-75 0 -130 41q-62 46 -62 118l1 77q0 39 12 71t40 54q-26 19 -39 53t-13 71l-1 77q0 16 5 33.5t13 32.5q24 48 69.5 70t104.5 22h160q59 0 104 -21.5t70 -70.5q9 -17 13.5 -33t4.5 -33l-1 -78q0 -40 -12 -71.5t-41 -52.5q27 -19 40.5 -53.5t13.5 -70.5
l-1 -77q0 -46 -24.5 -80t-67 -56.5t-99.5 -22.5zM467 543q0 27 -15.5 39.5t-43.5 12.5l-170 1q-29 0 -43 -12t-14 -41l1 -64q0 -43 44 -53l9 -2h172l13 2q46 10 46 54zM466 251q-1 6 -2 8q-6 23 -22 31.5t-41 8.5l-160 -1q-24 0 -38 -8.5t-19 -31.5l-3 -7l1 -75q0 -7 4 -17
q8 -20 23 -27.5t39 -7.5l145 -1q31 0 50 11q24 14 24 42z" />
    <glyph glyph-name="nine" unicode="9" horiz-adv-x="647" 
d="M423 0h-372l-1 125h362q25 0 40 12t15 36l1 75h-231q-68 0 -115 31q-52 34 -66 97q-4 16 -4 36l-1 140q0 67 49.5 117.5t116.5 50.5h202q74 0 126 -48t52 -121l-1 -378q0 -81 -46 -127t-127 -46zM468 543q0 21 -15.5 32.5t-38.5 17.5l-9 2h-178q-19 0 -32.5 -12.5
t-13.5 -31.5l1 -130q0 -27 13.5 -37.5t40.5 -10.5h175q25 0 40.5 10t15.5 34z" />
    <glyph glyph-name="colon" unicode=":" horiz-adv-x="207" 
d="M105 290q-31 0 -53.5 20.5t-22.5 51.5q0 30 22 50t52 20t52.5 -20.5t22.5 -51.5q0 -29 -21.5 -49.5t-51.5 -20.5zM105 1q-31 0 -52.5 20.5t-21.5 50.5q0 29 22 50t51 21q31 0 52.5 -20.5t21.5 -51.5q0 -29 -21.5 -49.5t-51.5 -20.5z" />
    <glyph glyph-name="semicolon" unicode=";" horiz-adv-x="212" 
d="M105 289q-32 0 -53.5 20.5t-21.5 51.5q0 30 22 50t51 20q31 0 52.5 -20.5t21.5 -50.5t-21.5 -50.5t-50.5 -20.5zM116 -100h-88l47 101q-21 8 -33.5 26.5t-12.5 40.5q0 31 22 52t54 21q31 0 53.5 -20.5t22.5 -50.5q0 -12 -3.5 -25t-9.5 -28z" />
    <glyph glyph-name="less" unicode="&#x3c;" horiz-adv-x="515" 
d="M22 360l458 245l1 -110l-264 -135l263 -135l1 -110z" />
    <glyph glyph-name="equal" unicode="=" horiz-adv-x="649" 
d="M45 376v121h558l1 -121h-559zM45 225v121h558l1 -121h-559z" />
    <glyph glyph-name="greater" unicode="&#x3e;" horiz-adv-x="515" 
d="M34 115v110l264 135l-263 135l-1 110l459 -245z" />
    <glyph glyph-name="question" unicode="?" horiz-adv-x="524" 
d="M239 307l-1 -155h-127v179q0 54 33.5 76.5t89.5 22.5q10 0 35.5 -2t27.5 -2q18 0 34 2.5t24 11.5q5 5 8 10q4 7 3 13l1 78q0 25 -11 40.5t-36 15.5h-312l-1 123h326q61 0 111 -44t50 -105l1 -120q0 -24 -9 -44.5t-26 -40.5q-30 -36 -73 -50q-32 -10 -84 -10h-32t-32 1z
M175 0q-31 0 -53 21t-22 52q0 30 22 51t52 21t52.5 -21.5t22.5 -50.5q0 -31 -22 -52t-52 -21z" />
    <glyph glyph-name="at" unicode="@" horiz-adv-x="778" 
d="M454 230q-9 -32 -38 -55t-63 -23q-22 0 -51 12q-41 18 -58.5 62t-17.5 95q0 59 17.5 114t53.5 97q23 27 48 41q29 17 61 17q33 0 55 -17q18 -14 36 -46l9 57l49 -1l-38 -215q-6 -29 -11.5 -60.5t-5.5 -56.5q0 -26 10.5 -44.5t34.5 -18.5q20 0 41 16q14 11 32 33
q27 33 41.5 86.5t14.5 102.5q0 113 -70 187t-182 74q-133 0 -221 -99q-84 -95 -84 -230q0 -133 79 -227q84 -100 215 -100q77 0 147.5 38.5t119.5 102.5l20 -36q-56 -71 -130.5 -110.5t-160.5 -39.5q-153 0 -251.5 107.5t-98.5 262.5q0 156 103.5 267.5t258.5 111.5
q134 0 220 -87t86 -221q0 -97 -44 -181q-54 -102 -142 -102q-37 0 -63 24.5t-22 61.5zM354 193q58 0 90 97q12 36 21 83q5 22 8.5 44t3.5 41q0 37 -15 60q-18 27 -53 27q-63 0 -98 -92q-27 -71 -27 -146q0 -46 12 -74q17 -40 58 -40z" />
    <glyph glyph-name="A" unicode="A" horiz-adv-x="627" 
d="M516 0l-55 145h-295l-55 -145h-138l244 648q13 34 34 55q25 25 59 25q39 0 64 -22q20 -18 36 -58l244 -648h-138zM312 539l-99 -269h201z" />
    <glyph glyph-name="B" unicode="B" horiz-adv-x="637" 
d="M416 0h-365l-1 720h378q112 0 154 -106q12 -29 12 -53l-1 -84q0 -72 -52 -113q30 -21 42 -54t12 -75l-2 -43q0 -80 -49 -136t-128 -56zM465 543q0 24 -15.5 36t-42.5 16h-227v-175h226q26 0 42 15t16 41zM463 252q0 18 -19.5 31t-39.5 13h-225v-171h223q23 0 42.5 18.5
t19.5 42.5z" />
    <glyph glyph-name="C" unicode="C" horiz-adv-x="574" 
d="M180 534l-1 -347q0 -26 19 -44t45 -18h299l1 -125h-322q-24 0 -49.5 8.5t-48.5 23.5q-35 24 -53.5 63.5t-18.5 83.5l-1 358q0 80 49.5 131.5t129.5 51.5h315l1 -125h-303q-62 0 -62 -61z" />
    <glyph glyph-name="D" unicode="D" horiz-adv-x="644" 
d="M410 0h-359l-1 720h381q73 0 117.5 -49.5t44.5 -123.5l1 -358q0 -121 -107 -171q-18 -8 -37.5 -13t-39.5 -5zM465 528q0 37 -13 52t-50 15h-222v-470l226 -1q32 0 45 19t13 54z" />
    <glyph glyph-name="E" unicode="E" horiz-adv-x="585" 
d="M180 531v-106h367l1 -125h-368l-1 -124q0 -16 12.5 -29.5t30.5 -18.5q5 -1 14.5 -2t18.5 -1h27h263l1 -125h-292q-97 0 -150 51t-53 148l-1 335q0 100 63 146q55 40 160 40h275l1 -125h-274l-44 1q-23 0 -37 -20t-14 -45z" />
    <glyph glyph-name="F" unicode="F" horiz-adv-x="559" 
d="M239 596q-60 0 -60 -60l1 -116h369l1 -124h-370l-1 -296h-129l1 524q0 107 57 154q51 42 161 42h283l-1 -125z" />
    <glyph glyph-name="G" unicode="G" horiz-adv-x="641" 
d="M397 0h-144q-30 0 -51.5 3.5t-45.5 14.5q-58 27 -81.5 67.5t-23.5 106.5l-1 333q0 97 53 146t152 49h288l1 -125h-298q-36 0 -51.5 -13.5t-15.5 -49.5l1 -346q0 -21 7.5 -36t25.5 -22l11 -3l173 -1q31 0 48 14.5t17 45.5l-1 236h130l-1 -226q0 -34 -2.5 -52t-14.5 -41
q-28 -55 -69.5 -78t-106.5 -23z" />
    <glyph glyph-name="H" unicode="H" horiz-adv-x="648" 
d="M468 0v296h-288l-1 -296h-128l-1 720h129l1 -300h288l-1 300h130l1 -720h-130z" />
    <glyph glyph-name="I" unicode="I" horiz-adv-x="230" 
d="M50 0v720h129l1 -720h-130z" />
    <glyph glyph-name="J" unicode="J" horiz-adv-x="273" 
d="M37 0h-43l-1 124q60 0 75 8q26 14 26 69l-1 519h130l-1 -516q0 -91 -47.5 -147.5t-137.5 -56.5z" />
    <glyph glyph-name="K" unicode="K" horiz-adv-x="580" 
d="M50 0v720h130l-1 -299q7 9 17.5 21t15.5 17l221 261h166l-296 -350l312 -371l-168 1l-240 286q-8 9 -14.5 17.5t-12.5 20.5v-324h-130z" />
    <glyph glyph-name="L" unicode="L" horiz-adv-x="530" 
d="M253 0q-93 0 -146 46q-56 49 -56 141l-1 533h129l1 -532q0 -36 16.5 -49.5t54.5 -13.5h285l1 -125h-284z" />
    <glyph glyph-name="M" unicode="M" horiz-adv-x="847" 
d="M668 0v525l-137 -440q-15 -48 -35 -68q-26 -26 -72 -26q-45 0 -69 23.5t-39 70.5l-136 440l-1 -525h-128l-1 607q0 42 11.5 69t45 42.5t66.5 15.5q42 0 70 -28q24 -24 37 -68l141 -473l146 473q13 43 37 67q29 29 71 29q32 0 65.5 -15.5t44.5 -42.5t11 -69l1 -607h-129z
" />
    <glyph glyph-name="N" unicode="N" horiz-adv-x="632" 
d="M474 -10q-37 0 -61 20.5t-41 57.5l-192 446l-1 -514h-128l-1 610q0 51 24 83.5t74 32.5q43 0 68 -18t43 -59l193 -454l-1 525h131l-1 -625q0 -46 -30.5 -75.5t-76.5 -29.5z" />
    <glyph glyph-name="O" unicode="O" horiz-adv-x="643" 
d="M361 0h-79q-114 0 -170 45q-62 50 -62 162l1 306q0 111 61 161q56 46 170 46h79q114 0 170 -45q62 -50 62 -162l-1 -306q0 -111 -61 -161q-56 -46 -170 -46zM463 518q0 47 -18 62t-67 15h-112q-49 0 -68 -15t-19 -62l1 -315q0 -48 18 -63t68 -15h112q49 0 66.5 14
t17.5 62z" />
    <glyph glyph-name="P" unicode="P" horiz-adv-x="605" 
d="M180 255l-1 -255h-128l-1 720h325q99 0 152 -38q63 -45 63 -140l1 -100q0 -90 -56.5 -138.5t-148.5 -48.5h-206zM461 536q0 35 -18.5 47t-55.5 12h-207v-215l205 -1q30 0 43 5q21 8 29 33q4 11 3 17z" />
    <glyph glyph-name="Q" unicode="Q" horiz-adv-x="642" 
d="M492 17l115 -116h-177l-102 96h-106q-33 0 -66 14q-55 22 -80 65.5t-25 105.5l-1 360q0 148 142 175l30 3h196q19 0 32 -4q69 -13 105.5 -58.5t36.5 -116.5l-1 -359q0 -66 -19 -101q-22 -40 -80 -64zM461 532q0 29 -16 46t-45 17h-157q-29 0 -46 -17t-17 -46l-1 -342
q0 -68 64 -68h156q29 0 46 18t17 48z" />
    <glyph glyph-name="R" unicode="R" horiz-adv-x="622" 
d="M180 393q27 27 70 27l157 1q22 0 38 11.5t16 32.5l1 78q0 52 -52 52h-230v-202zM440 -1l-260 292l-1 -292h-128l-1 720h377q57 0 98 -29q36 -26 51.5 -55.5t15.5 -72.5l-1 -120q0 -59 -45 -103t-104 -44h-96l265 -296h-171z" />
    <glyph glyph-name="S" unicode="S" horiz-adv-x="550" 
d="M160 481q0 -61 55 -61h126q67 0 118 -38q57 -43 57 -107l1 -110q0 -72 -51.5 -118.5t-124.5 -46.5h-311l-1 125h300q23 0 40.5 12t17.5 34l-1 87q0 23 -19 34.5t-44 11.5l-109 1q-73 0 -125 39q-58 43 -58 114l-1 88q0 60 22 98.5t75 62.5q19 8 39 10.5t50 2.5h304
l1 -125h-310q-26 0 -39 -10t-13 -36z" />
    <glyph glyph-name="T" unicode="T" horiz-adv-x="428" 
d="M279 595l-1 -595h-130l1 595h-155l-1 125h441l1 -125h-156z" />
    <glyph glyph-name="U" unicode="U" horiz-adv-x="639" 
d="M409 0h-179q-32 0 -69 13q-54 21 -82 65.5t-28 104.5l-1 537h130l-1 -524q0 -38 14.5 -54.5t52.5 -16.5l146 -1q38 0 52.5 14.5t14.5 51.5l-1 530h131l-1 -537q0 -60 -28.5 -103.5t-83.5 -65.5q-33 -14 -67 -14z" />
    <glyph glyph-name="V" unicode="V" horiz-adv-x="620" 
d="M310 -9q-34 0 -55 16.5t-34 50.5l-248 662h138l198 -535l200 535h138l-249 -662q-13 -35 -32.5 -51t-55.5 -16z" />
    <glyph glyph-name="W" unicode="W" horiz-adv-x="850" 
d="M603 -10q-36 0 -60.5 24t-32.5 61l-85 409l-85 -408q-8 -38 -32.5 -61.5t-61.5 -23.5q-40 0 -67 22t-36 62l-150 645h133l116 -501l86 420q9 43 30 65q25 27 67 27q41 0 66 -27q22 -24 30 -66l87 -419l116 501h133l-150 -646q-9 -39 -36.5 -61.5t-67.5 -22.5z" />
    <glyph glyph-name="X" unicode="X" horiz-adv-x="656" 
d="M530 0l-203 269l-199 -269l-162 -4l282 380l-256 344h160l175 -236l176 236h160l-257 -344l284 -376h-160z" />
    <glyph glyph-name="Y" unicode="Y" horiz-adv-x="590" 
d="M358 307l-1 -307h-129l-1 306l-265 414h152l178 -278l183 278h154z" />
    <glyph glyph-name="Z" unicode="Z" horiz-adv-x="534" 
d="M173 125h334l1 -125h-381q-44 0 -76 28t-32 71q0 33 21 60l320 436h-332l-1 125h392q40 0 68.5 -26.5t28.5 -66.5q0 -35 -21 -62z" />
    <glyph glyph-name="bracketleft" unicode="[" horiz-adv-x="278" 
d="M50 -108v900h205l1 -108h-79v-684h78l1 -108h-206z" />
    <glyph glyph-name="backslash" unicode="\" horiz-adv-x="297" 
d="M162 0l-130 720h101l132 -720h-103z" />
    <glyph glyph-name="bracketright" unicode="]" horiz-adv-x="278" 
d="M22 -108v108h80v684h-79l-1 108h205l1 -900h-206z" />
    <glyph glyph-name="asciicircum" unicode="^" horiz-adv-x="569" 
d="M428 170l-144 249l-143 -249h-115l258 433l259 -433h-115z" />
    <glyph glyph-name="underscore" unicode="_" horiz-adv-x="454" 
d="M34 -30v30h385l1 -30h-386z" />
    <glyph glyph-name="grave" unicode="`" horiz-adv-x="157" 
d="M56 591l-96 115h132l50 -115h-86z" />
    <glyph glyph-name="a" unicode="a" horiz-adv-x="576" 
d="M382 0h-179q-60 0 -106.5 45.5t-46.5 105.5l1 62q0 76 36 122q40 50 114 50h209q0 31 -4 36q-7 9 -38 9h-317l-1 110h333q64 0 103.5 -33.5t39.5 -96.5l-1 -266q0 -58 -42 -101t-101 -43zM411 232q0 20 -14.5 31.5t-36.5 11.5h-143q-20 0 -35.5 -11.5t-15.5 -31.5l-1 -83
q0 -24 17 -33q12 -6 40 -6h132q27 0 41.5 7t14.5 32z" />
    <glyph glyph-name="b" unicode="b" 
d="M374 0h-178q-31 0 -56.5 13t-48 37.5t-31.5 49t-9 59.5l-1 561h115l1 -174h196q67 0 103 -25q41 -29 53 -92q4 -18 3 -26l1 -254q0 -96 -89 -135q-16 -7 -30.5 -10.5t-28.5 -3.5zM407 389q0 26 -10 36t-38 10h-148q-26 0 -35.5 -9.5t-9.5 -34.5l-1 -230q0 -20 13 -35
t34 -15h157q18 0 25 9.5t12 30.5z" />
    <glyph glyph-name="c" unicode="c" horiz-adv-x="458" 
d="M214 0q-65 0 -113 38q-51 41 -51 105l1 255q0 64 34.5 97.5t99.5 42.5l27 2h219l1 -110h-220q-21 0 -33.5 -11.5t-12.5 -31.5l-1 -225q0 -21 14.5 -36.5t35.5 -15.5h217l1 -110h-219z" />
    <glyph glyph-name="d" unicode="d" 
d="M374 0h-177q-14 0 -28.5 3.5t-29.5 10.5q-45 20 -67 52.5t-22 81.5l1 255q0 71 43 107t115 36h198l-1 174h116l-1 -561q0 -36 -8.5 -59t-31.5 -48t-49 -38.5t-58 -13.5zM407 391q0 25 -10.5 34.5t-36.5 9.5h-147q-27 0 -37.5 -9.5t-10.5 -36.5l1 -235q4 -18 6 -24
q8 -19 30 -19h158q20 0 33 15t13 35z" />
    <glyph glyph-name="e" unicode="e" horiz-adv-x="557" 
d="M210 0q-42 0 -72.5 12t-54.5 43q-33 41 -33 93l1 231q0 82 47.5 121.5t131.5 39.5h135q70 0 111.5 -37t41.5 -107l1 -69l-353 -156v-13l2 -15q4 -20 14.5 -26.5t32.5 -6.5h309l1 -110h-315zM404 397q0 21 -9.5 27t-33.5 6h-148q-48 0 -48 -53l1 -85z" />
    <glyph glyph-name="f" unicode="f" horiz-adv-x="252" 
d="M219 610q-34 0 -44 -14.5t-10 -49.5h92l1 -111h-92l-1 -435h-115l1 575q0 67 44 106t113 39h51l-1 -111z" />
    <glyph glyph-name="g" unicode="g" horiz-adv-x="575" 
d="M358 -176h-307l-1 111h304q34 0 44.5 12.5t10.5 46.5h-203q-65 0 -108 44t-43 110l-1 246q0 100 90 136q27 10 50 10h191q63 0 101.5 -37.5t38.5 -101.5l-1 -437q0 -70 -49 -107q-44 -33 -117 -33zM409 389q0 40 -36 40h-152q-52 0 -52 -46l1 -235l3 -14q11 -29 42 -29
h160q20 0 27 13t7 35v236z" />
    <glyph glyph-name="h" unicode="h" horiz-adv-x="573" 
d="M408 0l-1 386q0 23 -10 36t-32 13h-150q-50 0 -50 -46l1 -389h-115l-1 720h115l1 -174h211q43 0 72.5 -13.5t52.5 -48.5q20 -31 20 -74l1 -410h-115z" />
    <glyph glyph-name="i" unicode="i" horiz-adv-x="216" 
d="M108 575q-31 0 -53.5 21.5t-22.5 51.5q0 29 22 50t52 21t52 -21t22 -51t-21 -51t-51 -21zM49 0v546h115l1 -546h-116z" />
    <glyph glyph-name="j" unicode="j" horiz-adv-x="216" 
d="M109 574q-31 0 -53.5 21.5t-22.5 52.5q0 30 22 51t52 21t52.5 -21.5t22.5 -52.5q0 -30 -21 -51t-52 -21zM38 -176h-76l-1 112h27q35 0 45 5q18 9 18 39l-1 565h116l-1 -566q0 -41 -8 -68.5t-34 -51.5q-38 -35 -85 -35z" />
    <glyph glyph-name="k" unicode="k" horiz-adv-x="540" 
d="M50 0v720h115l1 -388l4 6l214 208h161l-270 -263l281 -283h-158l-228 228l-4 6v-234h-116z" />
    <glyph glyph-name="l" unicode="l" horiz-adv-x="216" 
d="M50 0v720h115l1 -720h-116z" />
    <glyph glyph-name="m" unicode="m" horiz-adv-x="745" 
d="M580 0v391q0 36 -42 36h-78l-9 -3q-9 -5 -12.5 -15t-3.5 -23l1 -386h-116l1 385q0 43 -44 43h-70q-23 0 -32.5 -7.5t-9.5 -30.5l1 -390h-116l1 398q0 67 34.5 104.5t101.5 37.5h81q31 0 58 -8.5t46 -28.5q18 18 47 27.5t57 9.5h83q66 0 100.5 -37.5t34.5 -105.5l1 -397
h-115z" />
    <glyph glyph-name="n" unicode="n" 
d="M407 0v401q0 15 -15.5 21t-33.5 6h-142q-29 0 -40 -8t-11 -35l1 -385h-116l1 396q0 73 44.5 108.5t119.5 35.5h143q75 0 119 -35.5t44 -109.5l1 -395h-115z" />
    <glyph glyph-name="o" unicode="o" horiz-adv-x="579" 
d="M372 0h-165q-65 0 -109 36q-48 39 -48 103l1 269q0 66 46 101q41 31 110 31h165l23 -2q61 -9 95 -38q39 -33 39 -92l-1 -269q0 -63 -45.5 -101t-110.5 -38zM414 380q0 50 -51 50h-145q-53 0 -53 -50l1 -213q0 -29 11.5 -43t40.5 -14h146q49 0 49 53z" />
    <glyph glyph-name="p" unicode="p" horiz-adv-x="578" 
d="M166 -6l-1 -170h-115l1 571q0 70 41.5 107.5t111.5 37.5h169q32 0 53.5 -4.5t42.5 -19.5q59 -42 59 -115l-1 -249q0 -35 -7.5 -58t-29.5 -47q-47 -53 -113 -53h-211zM378 429h-161q-24 0 -37.5 -9t-13.5 -32l-1 -237q0 -9 3.5 -19t10 -15.5t10.5 -7.5q7 -4 14 -4h171
q16 0 27 10t11 27v257q0 30 -34 30z" />
    <glyph glyph-name="q" unicode="q" horiz-adv-x="578" 
d="M413 -176v170h-212q-33 0 -62 14t-51 38.5t-30 48t-8 56.5l1 251q0 73 58 114q19 13 43.5 18.5t52.5 5.5h170q70 0 111 -37t41 -107l1 -572h-115zM411 388q0 22 -14 31.5t-37 9.5h-161q-35 0 -35 -30l1 -255q0 -17 10 -28t28 -11h170q15 0 27 12t12 27z" />
    <glyph glyph-name="r" unicode="r" horiz-adv-x="260" 
d="M166 0h-116l1 391q0 68 27 102.5t94 44.5l24 2h63l1 -111l-37 1q-31 0 -44.5 -6.5t-13.5 -34.5z" />
    <glyph glyph-name="s" unicode="s" horiz-adv-x="494" 
d="M149 392l1 -26q0 -14 11 -22t25 -8l134 1q58 0 99 -37t41 -94l1 -81q0 -50 -38.5 -87.5t-89.5 -37.5h-300l-1 110h267h21q15 0 21 15.5t6 32.5l-2 31q0 22 -8.5 29.5t-31.5 7.5l-121 -1q-46 0 -75 12q-37 15 -58 50q-8 13 -12.5 28t-4.5 30l1 66q0 60 35.5 94.5
t96.5 34.5h294l1 -110h-270q-27 0 -35 -6t-8 -32z" />
    <glyph glyph-name="t" unicode="t" horiz-adv-x="237" 
d="M166 435l-1 -435h-114l-1 720h115l1 -174h92l1 -111h-93z" />
    <glyph glyph-name="u" unicode="u" 
d="M166 136q3 -14 16.5 -19t32.5 -5h143q28 0 38.5 8t10.5 35l-1 385h116l-1 -396q0 -73 -44.5 -108.5t-119.5 -35.5h-143q-75 0 -117 34q-46 37 -46 111l-1 395l115 1z" />
    <glyph glyph-name="v" unicode="v" horiz-adv-x="518" 
d="M259 -10q-33 0 -54 14t-34 46l-190 490h124l154 -398l154 398h124l-190 -489q-24 -61 -88 -61z" />
    <glyph glyph-name="w" unicode="w" horiz-adv-x="745" 
d="M547 -9q-71 0 -88 65l-85 320l-87 -320q-18 -65 -89 -65q-29 0 -51.5 14.5t-29.5 41.5l-124 493h115l94 -373l91 332q6 24 29 37.5t51 13.5q27 0 50 -13.5t30 -38.5l90 -331l94 373h115l-124 -493q-6 -26 -29.5 -41t-51.5 -15z" />
    <glyph glyph-name="x" unicode="x" horiz-adv-x="507" 
d="M385 0l-133 183l-129 -183h-141l202 279l-190 261h142l117 -165l118 165h142l-190 -261l202 -279h-140z" />
    <glyph glyph-name="y" unicode="y" 
d="M367 -176h-316l-1 111h314q29 0 36 14t7 45h-215q-59 0 -100 40t-41 100l-1 406h115l1 -383q0 -52 51 -52h140q26 0 38 9t12 34l-1 392h115l1 -557q0 -73 -41 -116t-114 -43z" />
    <glyph glyph-name="z" unicode="z" horiz-adv-x="543" 
d="M185 110h325l1 -110h-413q-36 0 -56 21t-20 58q0 31 21 51l314 300h-319l-1 110h401q38 0 60.5 -20.5t22.5 -58.5q0 -15 -3.5 -26.5t-12.5 -20.5z" />
    <glyph glyph-name="braceleft" unicode="{" horiz-adv-x="316" 
d="M191 -113q-42 0 -67.5 20t-25.5 61l-1 323q0 41 -34 54l-17 4q-13 2 -13 12q0 9 14 11t17 4q17 7 25 21t8 33l1 321q0 40 26 61t67 21h91l-1 -68h-30q-21 0 -30 -8t-9 -37l-1 -282q0 -52 -44 -78q45 -27 45 -78l-1 -283q0 -28 10 -36t33 -8h27l1 -68h-91z" />
    <glyph glyph-name="bar" unicode="|" horiz-adv-x="170" 
d="M34 0v720h101l1 -720h-102z" />
    <glyph glyph-name="braceright" unicode="}" horiz-adv-x="316" 
d="M125 -113h-91l1 68h30q22 0 30.5 8.5t8.5 36.5l1 282q0 52 44 78q-45 27 -45 78l1 283q0 28 -10 36t-33 8h-27l-1 68h92q41 0 66.5 -20.5t25.5 -60.5l1 -323q0 -41 34 -54l17 -4q13 -2 13 -12q0 -9 -13.5 -11t-17.5 -4q-17 -7 -25 -21t-8 -33l-1 -321q0 -40 -26 -61
t-67 -21z" />
    <glyph glyph-name="asciitilde" unicode="~" horiz-adv-x="470" 
d="M325 289q-32 0 -72 14q-94 33 -111 33q-15 0 -20 -21.5t-7 -26.5l-81 -1l1 24q0 49 30.5 81.5t79.5 32.5q30 0 71 -13q49 -18 71 -25q9 -3 19.5 -6t20.5 -3q13 0 20 18q6 23 8 30l81 1l-1 -24q0 -49 -30.5 -81.5t-79.5 -32.5z" />
    <glyph glyph-name="Adieresis" unicode="&#xc4;" horiz-adv-x="627" 
d="M400 740q-31 0 -52 21t-21 52q0 30 21 51t52 21q30 0 52 -21t22 -51q0 -31 -22 -52t-52 -21zM226 740q-31 0 -52 21t-21 52t22 52t53 21q30 0 51.5 -21.5t21.5 -51.5q0 -31 -22 -52t-53 -21zM514 0l-55 146h-295l-55 -146h-138l244 652q14 36 34 56q25 25 60 25
q40 0 64 -22q20 -18 35 -60l244 -651h-138zM310 542l-99 -271h201z" />
    <glyph glyph-name="Aring" unicode="&#xc5;" horiz-adv-x="627" 
d="M516 0l-55 146h-295l-55 -146h-138l245 652q10 27 24 46t35 28q-29 12 -47 37.5t-18 57.5q0 42 30.5 71.5t73.5 29.5t74.5 -29.5t31.5 -72.5q0 -33 -18.5 -58.5t-50.5 -36.5q20 -9 33 -26.5t24 -46.5l244 -652h-138zM317 837q-17 0 -19 -17q0 -8 5 -13t13 -4q17 0 19 17
q0 7 -5 12t-13 5zM313 543l-99 -271h201z" />
    <glyph glyph-name="Ccedilla" unicode="&#xc7;" horiz-adv-x="574" 
d="M315 -123h-93l58 119l-59 1q-24 0 -50 9t-47 22q-35 24 -54.5 63.5t-19.5 85.5l1 359q0 81 48.5 132.5t129.5 51.5h315l1 -125h-303q-62 0 -62 -62l-1 -348q0 -26 18.5 -44.5t45.5 -18.5h299l1 -126h-169z" />
    <glyph glyph-name="Eacute" unicode="&#xc9;" horiz-adv-x="585" 
d="M320 743h-86l51 136h131zM179 534l1 -106h367l1 -127h-368l-1 -124q0 -16 13 -29.5t30 -19.5q5 -1 14.5 -2t18.5 -1h27h263l1 -125h-293q-97 0 -149.5 51.5t-52.5 148.5l-1 337q0 102 62 147q55 40 161 40h275l1 -125h-274h-44q-23 0 -37.5 -20t-14.5 -45z" />
    <glyph glyph-name="Ntilde" unicode="&#xd1;" horiz-adv-x="632" 
d="M386 744q-41 0 -86 26.5t-52 26.5q-26 0 -68 -27q-19 -13 -38 -25l1 91q31 18 47 25q24 10 52 10q34 0 80 -23t63 -23q21 0 68 26l38 22l-1 -87q-45 -27 -49 -29q-27 -13 -55 -13zM474 -10q-37 0 -61 20.5t-41 57.5l-192 449l-1 -517h-128l-1 613q0 51 24.5 84t73.5 33
q43 0 68 -18.5t43 -59.5l193 -456l-1 528h130l1 -628q0 -46 -31 -76t-77 -30z" />
    <glyph glyph-name="Odieresis" unicode="&#xd6;" horiz-adv-x="643" 
d="M407 740q-30 0 -52 21t-22 51t22 52t53 22q30 0 51.5 -21.5t21.5 -52.5q0 -30 -22 -51t-52 -21zM236 740q-30 0 -52 21t-22 51q0 31 22 52t53 21q29 0 51 -21t22 -51q0 -31 -22 -52t-52 -21zM362 0h-79q-115 0 -171 46q-61 50 -61 163l1 307q0 113 60 163q55 46 171 46
h79q115 0 171 -46q61 -50 61 -163l-1 -307q0 -113 -60 -163q-55 -46 -171 -46zM464 521q0 48 -18 63t-67 15h-112q-49 0 -67.5 -15t-18.5 -63l-1 -318q0 -48 18 -63t69 -15h113q47 0 65 15t18 62z" />
    <glyph glyph-name="Udieresis" unicode="&#xdc;" horiz-adv-x="639" 
d="M404 740q-29 0 -51 21t-22 51t22 52t53 22q30 0 51.5 -21.5t21.5 -51.5q0 -31 -22 -52t-53 -21zM232 740q-30 0 -52 21t-22 51t22 52t53 22t52.5 -21.5t21.5 -52.5q0 -30 -22 -51t-53 -21zM409 0h-179q-18 0 -32.5 3t-35.5 10q-54 21 -82.5 66t-28.5 105l-1 541h129
l1 -528q0 -40 13.5 -56t52.5 -16h146q38 0 52.5 14.5t14.5 51.5l-1 534h131l-1 -541q0 -61 -28.5 -104.5t-83.5 -65.5q-33 -14 -67 -14z" />
    <glyph glyph-name="aacute" unicode="&#xe1;" horiz-adv-x="576" 
d="M316 571h-86l51 135h131zM382 0h-181q-60 0 -105 46t-45 106l-1 63q0 77 36 123q40 51 115 51l209 1q0 31 -4 36q-7 9 -38 9h-317l-1 111l333 -1q64 0 103 -34t39 -97l1 -269q0 -58 -42.5 -101.5t-101.5 -43.5zM411 234q0 20 -15 32t-36 12h-143q-21 0 -36.5 -11.5
t-15.5 -32.5l1 -84q0 -24 17 -33q12 -6 39 -6h133q26 0 38 6q17 9 17 33z" />
    <glyph glyph-name="agrave" unicode="&#xe0;" horiz-adv-x="576" 
d="M266 571l-96 135h132l50 -135h-86zM382 0h-181q-60 0 -105 46t-45 106l-1 63q0 77 36 123q40 51 115 51l209 1q0 31 -4 36q-7 9 -38 9h-317l-1 111l333 -1q64 0 103 -34t39 -97l1 -269q0 -58 -42.5 -101.5t-101.5 -43.5zM411 234q0 20 -15 32t-36 12h-143
q-21 0 -36.5 -11.5t-15.5 -32.5l1 -84q0 -24 17 -33q12 -6 39 -6h133q26 0 38 6q17 9 17 33z" />
    <glyph glyph-name="acircumflex" unicode="&#xe2;" horiz-adv-x="576" 
d="M338 572l-51 72l-48 -73h-109l95 135h119l104 -134h-110zM382 0h-181q-60 0 -105 46t-45 106l-1 63q0 77 36 123q40 51 115 51l209 1q0 31 -4 36q-7 9 -38 9h-317l-1 111l333 -1q64 0 103 -34t39 -97l1 -269q0 -58 -42.5 -101.5t-101.5 -43.5zM411 234q0 20 -15 32
t-36 12h-143q-21 0 -36.5 -11.5t-15.5 -32.5l1 -84q0 -24 17 -33q12 -6 39 -6h133q26 0 38 6q17 9 17 33z" />
    <glyph glyph-name="adieresis" unicode="&#xe4;" horiz-adv-x="576" 
d="M376 575q-30 0 -52 21t-22 52q0 30 22 51t52 21t52 -21t22 -52q0 -30 -22 -51t-52 -21zM204 575q-30 0 -52 21t-22 52q0 30 22 51t52 21q31 0 52.5 -20.5t21.5 -52.5q0 -31 -21.5 -51.5t-52.5 -20.5zM382 0h-181q-60 0 -105 46t-45 106l-1 63q0 77 36 123q40 51 115 51
l209 1q0 31 -4 36q-7 9 -38 9h-317l-1 111h333q65 0 103.5 -34t38.5 -98l1 -269q0 -58 -42.5 -101.5t-101.5 -43.5zM411 234q0 20 -15 32t-36 12h-143q-21 0 -36.5 -11.5t-15.5 -32.5l1 -84q0 -24 17 -33q12 -6 39 -6h133q26 0 38 6q17 9 17 33z" />
    <glyph glyph-name="atilde" unicode="&#xe3;" horiz-adv-x="576" 
d="M358 572q-41 0 -86 26.5t-52 26.5q-26 0 -68 -27q-19 -13 -38 -25l1 91q31 18 47 25q24 10 52 10q34 0 96 -31q32 -16 47 -16q21 0 68 26l38 22l-1 -87q-38 -23 -49 -28q-28 -13 -55 -13zM382 0h-181q-60 0 -105 46t-45 106l-1 63q0 77 36 123q40 51 115 51h209
q0 31 -4 36q-7 9 -38 9h-317l-1 111h333q64 0 103 -34t39 -97l1 -269q0 -58 -42.5 -101.5t-101.5 -43.5zM411 234q0 20 -15 32t-36 12h-143q-21 0 -36.5 -11.5t-15.5 -32.5l1 -84q0 -24 17 -33q12 -6 39 -6h133q26 0 38 6q17 9 17 33z" />
    <glyph glyph-name="aring" unicode="&#xe5;" horiz-adv-x="576" 
d="M288 555q-42 0 -73.5 28.5t-31.5 71.5t31 72t74 29q42 0 73.5 -29.5t31.5 -71.5t-31 -71t-74 -29zM288 682q-10 0 -16 -4q-12 -8 -12 -25q0 -11 8 -19t20 -8q11 0 20 8t9 19q0 12 -8.5 20.5t-20.5 8.5zM382 -1h-180q-60 0 -106 46t-46 106l1 63q0 77 35 123q40 52 115 52
l209 1q0 31 -4 36q-7 9 -38 9h-317l-1 111l334 -1q64 0 102.5 -33.5t38.5 -97.5l1 -270q0 -58 -42.5 -101.5t-101.5 -43.5zM411 234q0 20 -15 32t-36 12l-143 -1q-21 0 -36.5 -11.5t-15.5 -31.5l1 -85q0 -24 17 -33q12 -6 39 -6l133 1q26 0 38 6q17 9 17 33z" />
    <glyph glyph-name="ccedilla" unicode="&#xe7;" horiz-adv-x="458" 
d="M265 -123h-92l56 119h-15q-66 0 -113 38q-50 41 -50 106l-1 257q0 65 34.5 98.5t100.5 42.5l27 2h219l1 -111h-220q-20 0 -33 -12t-13 -32l-1 -226q0 -21 14 -37t36 -16h217l1 -110h-109z" />
    <glyph glyph-name="eacute" unicode="&#xe9;" horiz-adv-x="557" 
d="M306 571h-86l51 135h131zM210 0q-42 0 -72.5 12t-54.5 42q-33 42 -33 95l1 234q0 84 46.5 123.5t132.5 39.5l134 -1q70 0 112 -38t42 -107l1 -69l-353 -159v-13l2 -15q4 -21 13.5 -27t33.5 -6h309l1 -111h-315zM404 401q0 22 -9.5 28t-33.5 6l-147 -1q-28 0 -38.5 -12.5
t-10.5 -40.5l1 -86z" />
    <glyph glyph-name="egrave" unicode="&#xe8;" horiz-adv-x="557" 
d="M256 571l-96 135h132l50 -135h-86zM210 0q-42 0 -72.5 12t-54.5 42q-33 42 -33 95l1 234q0 84 46.5 123.5t132.5 39.5l134 -1q70 0 112 -38t42 -107l1 -69l-353 -159v-13l2 -15q4 -21 13.5 -27t33.5 -6h309l1 -111h-315zM404 401q0 22 -9.5 28t-33.5 6l-147 -1
q-28 0 -38.5 -12.5t-10.5 -40.5l1 -86z" />
    <glyph glyph-name="ecircumflex" unicode="&#xea;" horiz-adv-x="557" 
d="M328 572l-51 72l-48 -73h-109l95 135h119l104 -134h-110zM210 0q-42 0 -72.5 12t-54.5 42q-33 42 -33 95l1 234q0 84 46.5 123.5t132.5 39.5l134 -1q70 0 112 -38t42 -107l1 -69l-353 -159v-13l2 -15q4 -21 13.5 -27t33.5 -6h309l1 -111h-315zM404 401q0 22 -9.5 28
t-33.5 6l-147 -1q-28 0 -38.5 -12.5t-10.5 -40.5l1 -86z" />
    <glyph glyph-name="edieresis" unicode="&#xeb;" horiz-adv-x="557" 
d="M365 575q-30 0 -52 21t-22 52q0 30 22 51t52 21q31 0 52.5 -20.5t21.5 -52.5q0 -31 -21.5 -51.5t-52.5 -20.5zM194 575q-31 0 -53.5 21.5t-22.5 51.5q0 29 22 50t52 21t52 -21t22 -51t-21 -51t-51 -21zM210 0q-42 0 -72.5 12t-54.5 42q-33 42 -33 95l1 234
q0 84 46.5 123.5t132.5 39.5h134q70 0 112 -38t42 -107l1 -70l-353 -158v-13l2 -16q4 -21 13.5 -27t33.5 -6h309l1 -111h-315zM404 402q0 21 -9.5 27t-33.5 6h-147q-28 0 -38.5 -12.5t-10.5 -41.5l1 -86z" />
    <glyph glyph-name="iacute" unicode="&#xed;" horiz-adv-x="216" 
d="M128 571h-86l51 135h131zM45 0v546h115l1 -546h-116z" />
    <glyph glyph-name="igrave" unicode="&#xec;" horiz-adv-x="216" 
d="M78 571l-96 135h132l50 -135h-86zM45 0v546h115l1 -546h-116z" />
    <glyph glyph-name="icircumflex" unicode="&#xee;" horiz-adv-x="216" 
d="M157 572l-51 72l-48 -73h-109l95 135h119l104 -134h-110zM45 0v546h115l1 -546h-116z" />
    <glyph glyph-name="idieresis" unicode="&#xef;" horiz-adv-x="216" 
d="M207 575q-30 0 -52 21t-22 52q0 30 22 51t52 21q31 0 52.5 -20.5t21.5 -52.5q0 -31 -21.5 -51.5t-52.5 -20.5zM36 575q-31 0 -53.5 21.5t-22.5 51.5q0 29 22 50t52 21t52 -21t22 -51t-21 -51t-51 -21zM46 0l-1 546h115l1 -546h-115z" />
    <glyph glyph-name="ntilde" unicode="&#xf1;" 
d="M356 572q-41 0 -86 26.5t-52 26.5q-26 0 -68 -27q-19 -13 -38 -25l1 91q31 18 47 25q24 10 52 10q34 0 96 -31q32 -16 47 -16q21 0 68 26l38 22l-1 -87q-38 -23 -49 -28q-28 -13 -55 -13zM407 0v406q0 15 -15.5 21t-33.5 6h-142q-30 0 -40.5 -8t-10.5 -36l1 -389h-115
l-1 398q0 74 45 110.5t120 36.5l142 1q75 0 119.5 -36.5t44.5 -110.5l1 -399h-115z" />
    <glyph glyph-name="oacute" unicode="&#xf3;" horiz-adv-x="579" 
d="M317 571h-86l51 135h131zM372 0h-165q-66 0 -111.5 38t-45.5 103l1 271q0 67 43.5 100.5t112.5 33.5h165l24 -2q61 -10 94 -39q38 -34 38 -93l1 -271q0 -63 -46 -102t-111 -39zM414 384q0 51 -51 51h-145q-53 0 -53 -51l1 -216q0 -29 11.5 -43t40.5 -14h145q50 0 50 54z
" />
    <glyph glyph-name="ograve" unicode="&#xf2;" horiz-adv-x="579" 
d="M267 571l-96 135h132l50 -135h-86zM372 0h-165q-66 0 -111.5 38t-45.5 103l1 271q0 67 43.5 100.5t112.5 33.5h165l24 -2q61 -10 94 -39q38 -34 38 -93l1 -271q0 -63 -46 -102t-111 -39zM414 384q0 51 -51 51h-145q-53 0 -53 -51l1 -216q0 -29 11.5 -43t40.5 -14h145
q50 0 50 54z" />
    <glyph glyph-name="ocircumflex" unicode="&#xf4;" horiz-adv-x="579" 
d="M339 572l-51 72l-48 -73h-109l95 135h119l104 -134h-110zM372 0h-165q-66 0 -111.5 38t-45.5 103l1 271q0 67 43.5 100.5t112.5 33.5h165l24 -2q61 -10 94 -39q38 -34 38 -93l1 -271q0 -63 -46 -102t-111 -39zM414 384q0 51 -51 51h-145q-53 0 -53 -51l1 -216
q0 -29 11.5 -43t40.5 -14h145q50 0 50 54z" />
    <glyph glyph-name="odieresis" unicode="&#xf6;" horiz-adv-x="579" 
d="M377 575q-30 0 -52.5 21.5t-22.5 51.5q0 29 22 50t52 21t52 -21t22 -51t-21 -51t-52 -21zM207 575q-31 0 -53.5 21.5t-22.5 51.5q0 29 22 50t52 21t52 -21t22 -51t-21 -51t-51 -21zM373 0h-165q-66 0 -111.5 38t-45.5 103l1 271q0 67 43.5 100.5t112.5 33.5h165l24 -2
q61 -10 94 -39q38 -34 38 -93l1 -271q0 -63 -46 -102t-111 -39zM415 384q0 51 -51 51h-145q-53 0 -53 -51l1 -216q0 -29 11.5 -43t40.5 -14h145q50 0 50 54z" />
    <glyph glyph-name="otilde" unicode="&#xf5;" horiz-adv-x="579" 
d="M359 572q-41 0 -86 26.5t-52 26.5q-26 0 -68 -27q-19 -13 -38 -25l1 91q31 18 47 25q24 10 52 10q34 0 96 -31q32 -16 47 -16q21 0 68 26l38 22l-1 -87q-38 -23 -49 -28q-28 -13 -55 -13zM372 0h-165q-65 0 -111 38t-46 102l1 272q0 68 43 100.5t113 32.5l165 1l24 -3
q62 -10 94 -38q38 -34 38 -93l1 -271q0 -63 -46 -102t-111 -39zM414 384q0 50 -51 50l-145 1q-53 0 -53 -51l1 -216q0 -29 11.5 -43t40.5 -14h145q50 0 50 54z" />
    <glyph glyph-name="uacute" unicode="&#xfa;" 
d="M314 571h-86l51 135h131zM215 113h142q29 0 39.5 8t10.5 36l-1 389h115l1 -399q0 -74 -47 -112q-43 -35 -118 -35h-142q-75 0 -118 35q-46 38 -46 111l-1 400h116l-1 -389l1 -19q7 -16 18 -20.5t31 -4.5z" />
    <glyph glyph-name="ugrave" unicode="&#xf9;" 
d="M264 571l-96 135h132l50 -135h-86zM215 113h142q29 0 39.5 8t10.5 36l-1 389h115l1 -399q0 -74 -47 -112q-43 -35 -118 -35h-142q-75 0 -118 35q-46 38 -46 111l-1 400h116l-1 -389l1 -19q7 -16 18 -20.5t31 -4.5z" />
    <glyph glyph-name="ucircumflex" unicode="&#xfb;" 
d="M336 572l-51 72l-48 -73h-109l95 135h119l104 -134h-110zM215 113h142q29 0 39.5 8t10.5 36l-1 389h115l1 -399q0 -74 -47 -112q-43 -35 -118 -35h-142q-75 0 -118 35q-46 38 -46 111l-1 400h116l-1 -389l1 -19q7 -16 18 -20.5t31 -4.5z" />
    <glyph glyph-name="udieresis" unicode="&#xfc;" 
d="M373 575q-30 0 -52 21t-22 53q0 30 21 50t52 20t52.5 -20.5t21.5 -50.5t-21.5 -51.5t-51.5 -21.5zM200 575q-31 0 -52.5 21.5t-21.5 52.5q0 30 21.5 50.5t51.5 20.5t52 -21t22 -52q0 -30 -22 -51t-51 -21zM213 114h142q29 0 39.5 8t10.5 36l-1 389h116l-1 -399
q0 -74 -44.5 -110.5t-119.5 -36.5h-143q-74 0 -117 35q-46 38 -46 111l-1 400h116l-1 -389l1 -19q7 -16 18 -20.5t31 -4.5z" />
    <glyph glyph-name="dagger" unicode="&#x2020;" horiz-adv-x="505" 
d="M50 0v720h432l1 -122h-303v-476h302l1 -122h-433z" />
    <glyph glyph-name="degree" unicode="&#xb0;" horiz-adv-x="364" 
d="M182 464q-58 0 -102.5 38.5t-44.5 96.5t44 96.5t103 38.5t103.5 -38.5t44.5 -96.5t-44.5 -96.5t-103.5 -38.5zM182 671q-31 0 -55 -20.5t-24 -51.5t23.5 -51t55.5 -20q31 0 55 20t24 51t-23.5 51.5t-55.5 20.5z" />
    <glyph glyph-name="cent" unicode="&#xa2;" horiz-adv-x="458" 
d="M317 -3l-1 -75h-67l-1 75h-31q-34 0 -51.5 4.5t-33.5 14.5q-38 20 -60 51t-22 71l1 259q0 51 18.5 80t65.5 49q36 16 79 16h35l-1 46h68l1 -46h114l1 -110h-115v-324h115l1 -111h-116zM249 431h-41l-12 -2q-30 -9 -30 -44l-1 -227q0 -22 14.5 -35.5t37.5 -13.5h32v322z
" />
    <glyph glyph-name="sterling" unicode="&#xa3;" horiz-adv-x="618" 
d="M16 -2l-1 122q52 8 86.5 39.5t34.5 82.5l1 60h-122l-1 125h123v139q0 72 43 113t115 41h62q61 0 105 -43t44 -105l1 -78h-134l1 36q0 22 -2 35t-11 20q-13 10 -21 10h-39q-19 0 -28.5 -11.5t-9.5 -30.5l1 -127h190l1 -123h-191l-1 -26q0 -48 -6 -84.5t-25 -68.5h198
q8 0 17 5t17.5 12.5t12 24t3.5 37.5v25h130l1 -51q0 -78 -46.5 -127.5t-123.5 -49.5z" />
    <glyph glyph-name="section" unicode="&#xa7;" horiz-adv-x="845" 
d="M665 0l-1 543q0 32 -8.5 41.5t-38.5 13.5h-34h-39q-30 0 -44 -10.5t-14 -40.5l1 -547h-130l1 548q0 29 -13.5 39.5t-44.5 10.5h-60q-33 0 -47 -11t-14 -43l1 -544h-129l-1 538q0 83 49.5 132.5t132.5 49.5h81q34 0 61.5 -8t47.5 -29q19 19 48.5 28t61.5 9h81
q83 0 132 -49t49 -133l1 -538h-130z" />
    <glyph glyph-name="bullet" unicode="&#x2022;" horiz-adv-x="364" 
d="M182 225q-60 0 -103.5 38t-43.5 97q0 58 44.5 96.5t103.5 38.5t102.5 -38t43.5 -97q0 -58 -44 -96.5t-103 -38.5z" />
    <glyph glyph-name="paragraph" unicode="&#xb6;" horiz-adv-x="596" 
d="M240 720h309v-52h-309q-58 0 -99 -42t-41 -100q0 -59 40.5 -101.5t99.5 -42.5h69v242h55v-624h-55v330h-69q-81 0 -137 57t-56 138t56 138t137 57zM430 0v624h55v-624h-55z" />
    <glyph glyph-name="germandbls" unicode="&#xdf;" horiz-adv-x="603" 
d="M412 0h-226l-1 129l222 -1q51 0 51 47l1 94q0 39 -26 59.5t-66 20.5h-182l-1 123l115 -1q19 0 38.5 18.5t19.5 36.5l-1 29q0 18 -12 29t-30 11h-76q-31 0 -45.5 -8.5t-14.5 -36.5l1 -550h-128l-1 541q0 72 44.5 125.5t115.5 53.5h115q34 0 69.5 -18t55.5 -46
q12 -17 23 -40.5t11 -39.5l-1 -40q0 -47 -30 -85q106 -22 131 -136q4 -16 4 -36l1 -107q0 -70 -53 -121t-124 -51z" />
    <glyph glyph-name="registered" unicode="&#xae;" horiz-adv-x="862" 
d="M58 361q0 155 109 264t264 109q154 0 264 -109t110 -263q0 -155 -109.5 -264.5t-264.5 -109.5t-264 109t-109 264zM108 361q0 -135 94.5 -231.5t229.5 -96.5q134 0 228 96t94 230q0 136 -93.5 232.5t-229.5 96.5q-135 0 -229 -96t-94 -231zM314 131v469h111q37 0 59 -5
t44.5 -23t34 -45.5t11.5 -58.5q0 -54 -34 -88t-89 -34l147 -215h-71l-153 231v-231h-60zM374 382h39q45 0 71 19q30 22 30 66q0 42 -26 62.5t-69 20.5h-45v-168z" />
    <glyph glyph-name="copyright" unicode="&#xa9;" horiz-adv-x="862" 
d="M58 361q0 155 109 264t264 109q154 0 264 -109t110 -263q0 -155 -109.5 -264.5t-264.5 -109.5t-264 109t-109 264zM108 361q0 -135 94.5 -231.5t229.5 -96.5q134 0 228 96t94 230q0 136 -93.5 232.5t-229.5 96.5q-135 0 -229 -96t-94 -231zM605 544l-30 -44
q-54 48 -126 48q-79 0 -132.5 -55.5t-53.5 -135.5q0 -81 52.5 -135.5t132.5 -54.5q70 0 125 47l31 -42q-68 -58 -163 -58q-101 0 -170 68t-69 170q0 105 68.5 177.5t173.5 72.5q92 0 161 -58z" />
    <glyph glyph-name="trademark" unicode="&#x2122;" horiz-adv-x="729" 
d="M47 670v50h217v-50h-81v-310h-56v310h-80zM252 360l69 369h30l100 -228q7 -16 11.5 -31.5t4.5 -30.5q0 17 3 29t13 33l100 228h30l69 -369h-56l-36 210q-2 8 -3 15.5t-1 18.5l2 21q-8 -27 -16 -53l-95 -220h-20l-95 220q-4 10 -8.5 24.5t-7.5 28.5l2 -22q0 -8 -1.5 -18
t-2.5 -15l-36 -210h-56z" />
    <glyph glyph-name="acute" unicode="&#xb4;" horiz-adv-x="170" 
d="M113 591h-86l51 115h131z" />
    <glyph glyph-name="dieresis" unicode="&#xa8;" horiz-adv-x="277" 
d="M225 595q-27 0 -51 18t-24 45t23.5 44.5t51.5 17.5q29 0 51.5 -17t22.5 -45t-22.5 -45.5t-51.5 -17.5zM55 595q-28 0 -52 17.5t-24 45.5q0 27 23 44.5t51 17.5t51.5 -17.5t23.5 -45.5q0 -27 -22.5 -44.5t-50.5 -17.5z" />
    <glyph glyph-name="AE" unicode="&#xc6;" horiz-adv-x="957" 
d="M554 551v-128h365l1 -122h-366l-1 -127q0 -20 16 -34t36 -14h314l1 -126h-293q-67 0 -128 43q-68 48 -68 113h-218l-89 -156h-155l397 653q21 34 60 50.5t84 16.5h410l1 -121h-321q-20 0 -33 -14t-13 -34zM279 274h151l2 269z" />
    <glyph glyph-name="Oslash" unicode="&#xd8;" horiz-adv-x="645" 
d="M362 0h-79q-45 0 -80 5t-63 21l-18 -26l-75 -3l46 69q-24 32 -33 64.5t-9 78.5l-1 302q0 113 62 163q57 46 173 46h77q53 0 84.5 -5t64.5 -26l22 33l72 -1l-48 -71q22 -29 30 -61.5t8 -76.5l-1 -304q0 -113 -61 -163q-55 -45 -171 -45zM257 594q-43 0 -59 -18t-16 -60
l-1 -311l1 -8l259 385q-10 7 -27.5 9t-32.5 2zM464 510l-253 -377q8 -4 23.5 -6t26.5 -2l118 -1l29 3q35 3 45 20t10 54z" />
    <glyph glyph-name="yen" unicode="&#xa5;" horiz-adv-x="634" 
d="M467 434h155l1 -93h-215l-28 -34v-28h241l1 -93l-242 -1l-1 -185h-130l1 186h-233l-1 94h233v26l-20 35h-211l-1 94h152l-186 285h153l178 -278l183 278h153z" />
    <glyph glyph-name="ordfeminine" unicode="&#xaa;" horiz-adv-x="446" 
d="M57 340h342v-61h-342v61zM332 652v68h66l1 -331h-67v73q-29 -81 -122 -81q-73 0 -118 50t-45 124q0 69 45.5 122.5t114.5 53.5q74 0 117 -64zM115 556q0 -46 32 -81t77 -35q46 0 77.5 34.5t31.5 81.5q0 48 -30.5 82.5t-78.5 34.5q-46 0 -77.5 -34.5t-31.5 -82.5z" />
    <glyph glyph-name="ordmasculine" unicode="&#xba;" horiz-adv-x="446" 
d="M53 279v61h341v-61h-341zM47 557q0 74 50.5 126.5t124.5 52.5q75 0 126.5 -51.5t51.5 -127.5q0 -75 -50 -127t-126 -52q-75 0 -126 52t-51 127zM114 557q0 -49 30.5 -83t79.5 -34q47 0 77.5 34.5t30.5 83.5q0 47 -31.5 81.5t-78.5 34.5t-77.5 -34.5t-30.5 -82.5z" />
    <glyph glyph-name="ae" unicode="&#xe6;" horiz-adv-x="913" 
d="M471 41q-43 -41 -101 -41h-156q-25 0 -45.5 4t-42.5 16q-35 19 -54.5 49.5t-19.5 69.5l-1 92q0 60 45 98t106 38l207 -1q0 29 -1 34q-5 25 -42 25h-315l-1 115h313q57 0 104 -39q46 39 112 39h130q64 0 106 -23q50 -27 63 -86q1 -5 2 -12.5t0 -14.5l1 -80l-356 -151
l-1 -15q0 -26 18.5 -35t47.5 -9h290l1 -114h-305q-33 0 -59 9.5t-46 31.5zM762 396q0 16 -12.5 22.5t-29.5 6.5h-149q-24 0 -36 -9.5t-12 -33.5l1 -89zM409 254l-193 1q-23 0 -36 -10t-13 -32l1 -61q0 -18 16.5 -28.5t34.5 -10.5h143q46 0 46 44z" />
    <glyph glyph-name="oslash" unicode="&#xf8;" horiz-adv-x="580" 
d="M501 489q27 -39 27 -80l1 -271q0 -24 -9.5 -45.5t-26.5 -42.5q-22 -25 -53 -37.5t-67 -12.5h-166q-24 0 -42.5 3.5t-36.5 12.5l-12 -16h-72l41 52q-20 27 -25 39q-9 20 -9 47l-1 271q0 13 1 18q3 8 4 11q15 54 54.5 78t98.5 24h166q40 0 84 -15l14 20l68 -7zM364 432
l-147 1q-51 0 -51 -54l1 -216v-9l217 276q-6 2 -20 2zM414 377l-208 -266h160q24 0 35.5 14.5t11.5 38.5z" />
    <glyph glyph-name="questiondown" unicode="&#xbf;" horiz-adv-x="524" 
d="M349 575q-31 0 -52 21t-21 52q0 30 22 51t52 21q29 0 51 -21t22 -51q0 -31 -22 -52t-52 -21zM192 0q-62 0 -112 44t-50 105l-1 119q0 24 8.5 45t25.5 41q30 36 73 50q32 10 84 10q16 0 32 -0.5t33 -0.5l-1 155h129l1 -172q0 -46 -28 -75t-75 -29h-105q-7 0 -17.5 -1.5
t-18.5 -10.5q-13 -13 -14 -23l1 -78q0 -56 47 -56h312l1 -123h-325z" />
    <glyph glyph-name="exclamdown" unicode="&#xa1;" horiz-adv-x="249" 
d="M124 575q-30 0 -52 21t-22 52q0 30 22 51t52 21t52.5 -20.5t22.5 -51.5q0 -30 -22.5 -51.5t-52.5 -21.5zM61 1v566h130l1 -566h-131z" />
    <glyph glyph-name="logicalnot" unicode="&#xac;" horiz-adv-x="580" 
d="M458 216v129h-423l-1 91h511l1 -220h-88z" />
    <glyph glyph-name="florin" unicode="&#x192;" horiz-adv-x="400" 
d="M394 609h-30q-35 0 -50.5 -10.5t-21.5 -50.5h91l-14 -113h-91l-60 -469q-1 -12 -2 -16q-1 -7 -6 -16q-21 -59 -61 -84.5t-104 -25.5h-53l14 107l34 1q34 0 48 10t18 44l75 591q9 70 56.5 107t119.5 37h51z" />
    <glyph glyph-name="guillemotleft" unicode="&#xab;" horiz-adv-x="423" 
d="M312 45l-138 189q-12 15 -12 37q0 9 3.5 20t7.5 17l139 195l98 1l-171 -231l173 -228h-100zM173 45l-137 188q-13 18 -13 38q0 8 3 19.5t8 17.5l139 195l98 1l-171 -231l173 -228h-100z" />
    <glyph glyph-name="guillemotright" unicode="&#xbb;" horiz-adv-x="423" 
d="M250 46l-99 -1l171 231l-172 228h99l138 -188q13 -18 13 -37q0 -8 -3.5 -20t-7.5 -18zM111 46l-99 -1l172 231l-173 228h100l137 -188q13 -18 13 -38q0 -8 -3 -19.5t-8 -17.5z" />
    <glyph glyph-name="ellipsis" unicode="&#x2026;" horiz-adv-x="620" 
d="M517 -10q-29 0 -52.5 17t-23.5 46q0 28 23.5 45.5t51.5 17.5q30 0 53.5 -17t23.5 -46q0 -28 -23.5 -45.5t-52.5 -17.5zM311 -10q-29 0 -52.5 17t-23.5 46q0 28 23.5 45.5t51.5 17.5q30 0 53.5 -17t23.5 -46q0 -28 -23.5 -45.5t-52.5 -17.5zM105 -10q-29 0 -52.5 17
t-23.5 46q0 28 23.5 45.5t51.5 17.5q30 0 53.5 -17t23.5 -46q0 -28 -23.5 -45.5t-52.5 -17.5z" />
    <glyph glyph-name="nonbreakingspace" unicode="&#xa0;" horiz-adv-x="500" 
 />
    <glyph glyph-name="Agrave" unicode="&#xc0;" horiz-adv-x="627" 
d="M291 743l-96 136h132l50 -136h-86zM516 0l-55 146h-295l-55 -146h-138l244 651q14 35 34 56q25 26 60 26q40 0 64 -22q20 -18 35 -60l244 -651h-138zM312 542l-99 -271h201z" />
    <glyph glyph-name="Atilde" unicode="&#xc3;" horiz-adv-x="627" 
d="M383 744q-41 0 -86 26.5t-52 26.5q-26 0 -68 -27q-19 -13 -38 -25l1 91q31 18 47 25q24 10 52 10q34 0 80 -23t63 -23q21 0 68 26l38 22l-1 -87q-45 -27 -49 -29q-27 -13 -55 -13zM516 0l-55 146h-295l-55 -146h-138l244 651q14 35 34 56q25 26 60 26q40 0 64 -22
q20 -18 35 -60l244 -651h-138zM312 542l-99 -271h201z" />
    <glyph glyph-name="Otilde" unicode="&#xd5;" horiz-adv-x="643" 
d="M391 744q-41 0 -86 26.5t-52 26.5q-26 0 -68 -27q-19 -13 -38 -25l1 91q31 18 47 25q24 10 52 10q34 0 80 -23t63 -23q21 0 68 26l38 22l-1 -87q-45 -27 -49 -29q-27 -13 -55 -13zM361 0h-79q-115 0 -171 46q-61 50 -61 163l1 306q0 113 60 163q55 46 171 46h79
q116 0 171 -45q61 -50 61 -163l-1 -307q0 -113 -60 -163q-55 -46 -171 -46zM463 521q0 48 -18 63t-67 15h-112q-49 0 -67.5 -15t-18.5 -63l-1 -318q0 -48 18 -63t69 -15h113q47 0 65 15t18 62z" />
    <glyph glyph-name="OE" unicode="&#x152;" horiz-adv-x="1001" 
d="M589 540v-118h359l1 -123h-360l-1 -123q0 -48 51 -48h305l1 -128h-304q-33 0 -63.5 13.5t-56.5 38.5q-50 -52 -121 -52h-166q-73 0 -128.5 48t-55.5 120l1 376q0 33 6.5 56.5t23.5 48.5q33 44 63.5 57.5t89.5 13.5h186q32 0 59 -9.5t47 -32.5q45 42 107 42h317l1 -127
l-307 1q-55 0 -55 -54zM458 547q0 22 -14.5 34.5t-36.5 12.5l-176 1q-25 0 -39.5 -12.5t-14.5 -38.5l-1 -368q0 -24 15.5 -35.5t40.5 -11.5l180 1q20 0 33.5 15.5t13.5 36.5z" />
    <glyph glyph-name="oe" unicode="&#x153;" horiz-adv-x="913" 
d="M50 398q0 70 53 108q47 34 120 34h135q32 0 59 -9.5t49 -29.5q48 39 109 39h153q34 0 64.5 -10.5t52.5 -33.5t28.5 -46.5t6.5 -59.5l1 -65l-357 -151l-1 -10q0 -29 14.5 -39t45.5 -10h296l1 -114h-313q-27 0 -54 10.5t-48 29.5q-39 -41 -94 -41h-164q-53 0 -78 11
q-32 14 -57 56q-21 35 -21 76zM226 115l126 -1q33 0 46.5 12.5t13.5 45.5l-1 197q0 32 -13 44t-45 12h-127q-33 0 -46 -12t-13 -44l-1 -197q0 -33 13 -45t47 -12zM761 397q0 16 -8.5 21.5t-29.5 8.5l-6 1h-142q-25 0 -36.5 -7t-16.5 -31l1 -94z" />
    <glyph glyph-name="endash" unicode="&#x2013;" horiz-adv-x="649" 
d="M45 303v107h558l1 -107h-559z" />
    <glyph glyph-name="emdash" unicode="&#x2014;" horiz-adv-x="524" 
d="M22 225v101h479l1 -101h-480z" />
    <glyph glyph-name="quotedblleft" unicode="&#x201c;" horiz-adv-x="328" 
d="M92 492q-31 0 -54 18.5t-23 48.5q0 11 3.5 24t9.5 26l52 111h88l-47 -96q31 -11 42 -41l10 26l52 111h88l-46 -96q21 -8 33.5 -24.5t12.5 -38.5q0 -30 -22.5 -49.5t-53.5 -19.5q-24 0 -45 12.5t-29 33.5q-7 -21 -27.5 -33.5t-43.5 -12.5z" />
    <glyph glyph-name="quotedblright" unicode="&#x201d;" horiz-adv-x="328" 
d="M102 492h-88l46 95q-19 7 -32 25t-13 40q0 29 23 48t53 19q25 0 45 -12.5t27 -34.5q7 21 28 34t45 13q30 0 53.5 -18.5t23.5 -47.5q0 -11 -3.5 -24t-9.5 -26l-52 -111h-88l47 95q-32 13 -43 44q-2 -10 -10 -28z" />
    <glyph glyph-name="quoteleft" unicode="&#x2018;" horiz-adv-x="182" 
d="M92 492q-31 0 -54 18.5t-23 48.5q0 11 3.5 24t9.5 26l52 111h88l-46 -96q21 -8 33.5 -24.5t12.5 -38.5q0 -30 -22.5 -49.5t-53.5 -19.5z" />
    <glyph glyph-name="quoteright" unicode="&#x2019;" horiz-adv-x="182" 
d="M102 492h-88l46 95q-19 7 -32 25t-13 40q0 29 23 48t52 19q30 0 53.5 -18.5t23.5 -47.5q0 -11 -3.5 -24t-9.5 -26z" />
    <glyph glyph-name="ydieresis" unicode="&#xff;" 
d="M373 574q-30 0 -52 21t-22 52q0 30 22.5 51.5t51.5 21.5q30 0 52 -21t22 -51q0 -31 -21.5 -52.5t-52.5 -21.5zM202 574q-31 0 -53.5 21.5t-22.5 52.5q0 30 22 51t52 21t52.5 -21.5t22.5 -52.5q0 -30 -21 -51t-52 -21zM368 -176h-316l-1 112h314q29 0 36 14t7 45h-215
q-59 0 -100 40t-41 101l-1 409h115l1 -386q0 -52 51 -52h140q26 0 38 9t12 34l-1 395h116l-1 -561q0 -73 -40.5 -116.5t-113.5 -43.5z" />
    <glyph glyph-name="Ydieresis" unicode="&#x178;" horiz-adv-x="590" 
d="M382 747q-30 0 -52 21t-22 52q0 30 22.5 51.5t51.5 21.5q30 0 52 -21t22 -51q0 -31 -21.5 -52.5t-52.5 -21.5zM211 747q-31 0 -53.5 21.5t-22.5 52.5q0 30 22 51t52 21t52.5 -21.5t22.5 -52.5q0 -30 -21 -51t-52 -21zM359 309l-1 -309h-129l-1 308l-265 417h152l178 -280
l183 280h154z" />
    <glyph glyph-name="fraction" unicode="&#x2215;" horiz-adv-x="302" 
d="M52 0h-100l297 720h101z" />
    <glyph glyph-name="currency" unicode="&#xa4;" horiz-adv-x="458" 
d="M47 213l61 61q-28 39 -28 87t28 87l-61 57q13 18 32 36l63 -62q38 29 87 29q48 0 87 -28l61 62q12 -9 20 -17t14 -19l-62 -58q28 -39 28 -86q0 -49 -29 -89l61 -62q-7 -9 -14.5 -16.5t-18.5 -15.5l-60 62q-38 -29 -87 -29t-87 29l-63 -60q-18 14 -32 32zM129 360
q0 -41 29 -70t71 -29q41 0 70 29t29 70t-29 70t-70 29t-70.5 -28.5t-29.5 -70.5z" />
    <glyph glyph-name="guilsinglleft" unicode="&#x2039;" horiz-adv-x="284" 
d="M173 45l-137 188q-13 18 -13 38q0 8 3 19.5t8 17.5l139 195l98 1l-171 -231l173 -228h-100z" />
    <glyph glyph-name="guilsinglright" unicode="&#x203a;" horiz-adv-x="284" 
d="M111 46l-99 -1l172 231l-173 228h100l137 -188q13 -18 13 -38q0 -8 -3 -19.5t-8 -17.5z" />
    <glyph glyph-name="fi" unicode="&#xf001;" horiz-adv-x="649" 
d="M405 361l157 -149l-81 -75l-157 149l-161 -153l-80 76l161 152l-157 149l81 75l156 -148l162 153l80 -76z" />
    <glyph glyph-name="fl" unicode="&#xf002;" horiz-adv-x="230" 
d="M50 0v720h129l1 -720h-130z" />
    <glyph glyph-name="daggerdbl" unicode="&#x2021;" horiz-adv-x="602" 
d="M357 105l-1 -245h-111l1 245h-252l-1 102h253v169h-252l-1 101h253l-1 245h111l1 -245h251l1 -101h-252v-169h251l1 -102h-252z" />
    <glyph glyph-name="periodcentered" unicode="&#xb7;" horiz-adv-x="207" 
d="M104 185q-29 0 -52 16.5t-23 44.5q0 27 23 45t52 18t51.5 -17t22.5 -45t-22.5 -45t-51.5 -17z" />
    <glyph glyph-name="periodcentered" unicode="&#x2219;" horiz-adv-x="207" 
d="M104 185q-29 0 -52 16.5t-23 44.5q0 27 23 45t52 18t51.5 -17t22.5 -45t-22.5 -45t-51.5 -17z" />
    <glyph glyph-name="quotesinglbase" unicode="&#x201a;" horiz-adv-x="182" 
d="M102 -100h-88l47 95q-46 17 -46 64q0 29 22.5 48.5t52.5 19.5q31 0 54 -18.5t23 -48.5q0 -11 -3.5 -24t-9.5 -25z" />
    <glyph glyph-name="quotedblbase" unicode="&#x201e;" horiz-adv-x="328" 
d="M102 -100h-88l47 95q-46 17 -46 64q0 30 22.5 49t53.5 19q25 0 45 -12.5t27 -35.5q7 22 27 35.5t45 13.5q30 0 54 -19t24 -49q0 -11 -3.5 -24t-9.5 -25l-52 -111h-88l47 95q-32 11 -43 42q-1 -6 -4 -13q-1 -4 -6 -13z" />
    <glyph glyph-name="perthousand" unicode="&#x2030;" horiz-adv-x="1037" 
d="M923 -2h-92q-53 0 -86 27t-33 80l-1 104q0 52 33.5 79.5t87.5 27.5h94q52 0 84.5 -27.5t32.5 -79.5l1 -105q0 -52 -33.5 -79t-87.5 -27zM919 196q0 6 -7.5 8t-13.5 2h-48q-20 0 -19 -10l-1 -77q0 -5 8.5 -8t14.5 -3l44 1q9 0 13 1q9 3 10 9zM204 402h-90q-53 0 -86 26
q-36 29 -36 81l1 104q0 51 34 79t86 28h90q53 0 87.5 -27.5t34.5 -79.5l-1 -104q0 -51 -34 -79t-86 -28zM200 600q0 6 -7.5 8t-13.5 2h-47q-9 0 -13 -1q-8 -2 -9 -9l1 -78q0 -6 7.5 -8t13.5 -2h46q9 0 13 1q9 3 10 9zM195 0h-132l417 720h134zM561 -2h-91q-53 0 -85 26
q-35 29 -35 81l1 104q0 53 32.5 80t86.5 27h94q52 0 84.5 -27.5t32.5 -79.5l1 -105q0 -52 -33.5 -79t-87.5 -27zM557 196q0 6 -7 8q-6 2 -13 2h-46q-9 0 -13 -1q-9 -3 -10 -9l1 -77q0 -6 8 -9q5 -2 13 -2h45q5 0 13.5 2t9.5 9z" />
    <glyph glyph-name="Acircumflex" unicode="&#xc2;" horiz-adv-x="627" 
d="M363 744l-51 73l-48 -74h-109l95 136h119l104 -135h-110zM516 0l-55 146h-295l-55 -146h-138l244 651q14 35 34 56q25 26 60 26q40 0 64 -22q20 -18 35 -60l244 -651h-138zM312 542l-99 -271h201z" />
    <glyph glyph-name="Ecircumflex" unicode="&#xca;" horiz-adv-x="585" 
d="M342 744l-51 73l-48 -74h-109l95 136h119l104 -135h-110zM179 534l1 -106h367l1 -127h-368l-1 -124q0 -16 13 -29.5t30 -19.5q5 -1 14.5 -2t18.5 -1h27h263l1 -125h-293q-97 0 -149.5 51.5t-52.5 148.5l-1 337q0 102 62 147q55 40 161 40h275l1 -125h-274h-44
q-23 0 -37.5 -20t-14.5 -45z" />
    <glyph glyph-name="Aacute" unicode="&#xc1;" horiz-adv-x="627" 
d="M341 743h-86l51 136h131zM516 0l-55 146h-295l-55 -146h-138l244 651q14 35 34 56q25 26 60 26q40 0 64 -22q20 -18 35 -60l244 -651h-138zM312 542l-99 -271h201z" />
    <glyph glyph-name="Edieresis" unicode="&#xcb;" horiz-adv-x="585" 
d="M379 747q-30 0 -52 21t-22 52q0 30 22.5 51.5t51.5 21.5q30 0 52 -21t22 -51q0 -31 -21.5 -52.5t-52.5 -21.5zM208 747q-31 0 -53.5 21.5t-22.5 52.5q0 30 22 51t52 21t52.5 -21.5t22.5 -52.5q0 -30 -21 -51t-52 -21zM180 535l1 -107h367l1 -126h-368l-1 -125
q0 -16 13 -29.5t30 -19.5q5 -1 14.5 -2t18.5 -1h27h263l1 -125h-293q-97 0 -149.5 51.5t-52.5 148.5l-1 338q0 102 62 147q55 40 161 40h275l1 -126h-274h-44q-23 0 -37.5 -20t-14.5 -44z" />
    <glyph glyph-name="Egrave" unicode="&#xc8;" horiz-adv-x="585" 
d="M270 743l-96 136h132l50 -136h-86zM179 534l1 -106h367l1 -127h-368l-1 -124q0 -16 13 -29.5t30 -19.5q5 -1 14.5 -2t18.5 -1h27h263l1 -125h-293q-97 0 -149.5 51.5t-52.5 148.5l-1 337q0 102 62 147q55 40 161 40h275l1 -125h-274h-44q-23 0 -37.5 -20t-14.5 -45z" />
    <glyph glyph-name="Iacute" unicode="&#xcd;" horiz-adv-x="230" 
d="M143 743h-86l51 136h131zM50 0v724h129l1 -724h-130z" />
    <glyph glyph-name="Icircumflex" unicode="&#xce;" horiz-adv-x="230" 
d="M165 744l-51 73l-48 -74h-109l95 136h119l104 -135h-110zM50 0v724h129l1 -724h-130z" />
    <glyph glyph-name="Idieresis" unicode="&#xcf;" horiz-adv-x="230" 
d="M202 747q-30 0 -52 21t-22 52q0 30 22.5 51.5t51.5 21.5q30 0 52 -21t22 -51q0 -31 -21.5 -52.5t-52.5 -21.5zM31 747q-31 0 -53.5 21.5t-22.5 52.5q0 30 22 51t52 21t52.5 -21.5t22.5 -52.5q0 -30 -21 -51t-52 -21zM52 0l-1 725h129l1 -725h-129z" />
    <glyph glyph-name="Igrave" unicode="&#xcc;" horiz-adv-x="230" 
d="M93 743l-96 136h132l50 -136h-86zM50 0v724h129l1 -724h-130z" />
    <glyph glyph-name="Oacute" unicode="&#xd3;" horiz-adv-x="643" 
d="M349 743h-86l51 136h131zM361 0h-79q-115 0 -171 46q-61 50 -61 163l1 306q0 113 60 163q55 46 171 46h79q116 0 171 -45q61 -50 61 -163l-1 -307q0 -113 -60 -163q-55 -46 -171 -46zM463 521q0 48 -18 63t-67 15h-112q-49 0 -67.5 -15t-18.5 -63l-1 -318q0 -48 18 -63
t69 -15h113q47 0 65 15t18 62z" />
    <glyph glyph-name="Ocircumflex" unicode="&#xd4;" horiz-adv-x="643" 
d="M371 744l-51 73l-48 -74h-109l95 136h119l104 -135h-110zM361 0h-79q-115 0 -171 46q-61 50 -61 163l1 306q0 113 60 163q55 46 171 46h79q116 0 171 -45q61 -50 61 -163l-1 -307q0 -113 -60 -163q-55 -46 -171 -46zM463 521q0 48 -18 63t-67 15h-112q-49 0 -67.5 -15
t-18.5 -63l-1 -318q0 -48 18 -63t69 -15h113q47 0 65 15t18 62z" />
    <glyph glyph-name="Ograve" unicode="&#xd2;" horiz-adv-x="643" 
d="M299 743l-96 136h132l50 -136h-86zM361 0h-79q-115 0 -171 46q-61 50 -61 163l1 306q0 113 60 163q55 46 171 46h79q116 0 171 -45q61 -50 61 -163l-1 -307q0 -113 -60 -163q-55 -46 -171 -46zM463 521q0 48 -18 63t-67 15h-112q-49 0 -67.5 -15t-18.5 -63l-1 -318
q0 -48 18 -63t69 -15h113q47 0 65 15t18 62z" />
    <glyph glyph-name="Uacute" unicode="&#xda;" horiz-adv-x="639" 
d="M347 743h-86l51 136h131zM409 0h-179q-18 0 -32.5 3t-35.5 10q-54 21 -82.5 66t-28.5 105l-1 540h129l1 -527q0 -40 13.5 -56t52.5 -16h146q38 0 52.5 14.5t14.5 51.5l-1 533h131l-1 -540q0 -61 -28.5 -104.5t-83.5 -65.5q-33 -14 -67 -14z" />
    <glyph glyph-name="Ucircumflex" unicode="&#xdb;" horiz-adv-x="639" 
d="M369 744l-51 73l-48 -74h-109l95 136h119l104 -135h-110zM409 0h-179q-18 0 -32.5 3t-35.5 10q-54 21 -82.5 66t-28.5 105l-1 540h129l1 -527q0 -40 13.5 -56t52.5 -16h146q38 0 52.5 14.5t14.5 51.5l-1 533h131l-1 -540q0 -61 -28.5 -104.5t-83.5 -65.5q-33 -14 -67 -14
z" />
    <glyph glyph-name="Ugrave" unicode="&#xd9;" horiz-adv-x="639" 
d="M297 743l-96 136h132l50 -136h-86zM409 0h-179q-18 0 -32.5 3t-35.5 10q-54 21 -82.5 66t-28.5 105l-1 540h129l1 -527q0 -40 13.5 -56t52.5 -16h146q38 0 52.5 14.5t14.5 51.5l-1 533h131l-1 -540q0 -61 -28.5 -104.5t-83.5 -65.5q-33 -14 -67 -14z" />
    <glyph glyph-name="dotlessi" unicode="&#x131;" horiz-adv-x="741" 
d="M575 0v540h115l1 -540h-116z" />
    <glyph glyph-name="circumflex" unicode="&#x2c6;" horiz-adv-x="281" 
d="M190 592l-51 61l-48 -62h-109l95 115h119l104 -114h-110z" />
    <glyph glyph-name="tilde" unicode="&#x2dc;" horiz-adv-x="335" 
d="M237 592q-39 0 -85 22.5t-53 22.5q-27 0 -68 -22l-38 -22l1 75q26 14 50 22t50 8q33 0 80 -19.5t62 -19.5q19 0 53 15q40 20 53 26l-1 -74q-41 -21 -50 -24q-26 -10 -54 -10z" />
    <glyph glyph-name="macron" unicode="&#xaf;" horiz-adv-x="269" 
d="M-6 607l-1 72h282l1 -72h-282z" />
    <glyph glyph-name="breve" unicode="&#x2d8;" horiz-adv-x="257" 
d="M128 590q-54 0 -93 31q-42 34 -42 85h85l-2 -15q0 -19 16 -31t36 -12q26 0 40 16t11 42h85q0 -52 -40.5 -84t-95.5 -32z" />
    <glyph glyph-name="ring" unicode="&#x2da;" horiz-adv-x="195" 
d="M98 588q-40 0 -72.5 25.5t-32.5 65.5t32 66t73 26t72 -26t31 -66t-31 -65.5t-72 -25.5zM98 705q-11 0 -20.5 -7.5t-9.5 -18.5q0 -10 9.5 -17.5t21.5 -7.5q10 0 18.5 7.5t8.5 17.5q0 12 -8 19t-20 7z" />
    <glyph glyph-name="cedilla" unicode="&#xb8;" horiz-adv-x="128" 
d="M79 -123h-92l60 107h95z" />
    <glyph glyph-name="caron" unicode="&#x2c7;" horiz-adv-x="281" 
d="M204 591h-119l-104 114h110l50 -61l49 62l108 -1z" />
    </font>
</defs>
</svg>
